<svg width="2427" height="333" viewBox="0 0 2427 333" fill="none" xmlns="http://www.w3.org/2000/svg">
<path fill-rule="evenodd" clip-rule="evenodd" d="M200 0L300 268H200L104 10.7198L100 0H108H200Z" fill="#D30020"/>
<path d="M104 10.7198L100 0L0 268H8L104 10.7198Z" fill="white"/>
<path d="M104 203L121.556 250.444L169 268L121.556 285.556L104 333L86.4441 285.556L39 268L86.4441 250.444L104 203Z" fill="white"/>
<path d="M452.359 91.996V223.464L433.777 205.083H545.865V241.846H411V91.996H452.359Z" fill="white"/>
<path d="M586.393 241.846V168.919H627.952V241.846H586.393ZM516.064 91.996H562.018L616.363 161.127H597.782L651.928 91.996H697.882L620.359 190.497L593.786 190.897L516.064 91.996Z" fill="white"/>
<path d="M741.808 157.53H796.353C803.013 157.53 808.208 155.999 811.938 152.935C815.667 149.871 817.532 145.609 817.532 140.148C817.532 134.553 815.667 130.291 811.938 127.361C808.208 124.297 803.013 122.765 796.353 122.765H736.014L754.595 102.985V241.846H713.237V91.996H802.148C813.603 91.996 823.593 94.0606 832.118 98.1898C840.642 102.186 847.302 107.78 852.098 114.973C856.893 122.033 859.29 130.424 859.29 140.148C859.29 149.605 856.893 157.93 852.098 165.123C847.302 172.316 840.642 177.91 832.118 181.906C823.593 185.902 813.603 187.9 802.148 187.9H741.808V157.53ZM764.186 171.716H810.739L864.485 241.846H816.533L764.186 171.716Z" fill="white"/>
<path d="M909.428 213.075V179.708H1012.72V213.075H909.428ZM989.148 91.996L1057.28 241.846H1013.12L955.981 109.578H967.969L910.626 241.846H866.471L934.602 91.996H989.148Z" fill="white"/>
<path d="M1141.53 162.725H1205.87C1215.72 162.725 1223.58 160.261 1229.44 155.333C1235.44 150.404 1238.43 143.811 1238.43 135.552C1238.43 127.161 1235.44 120.567 1229.44 115.772C1223.58 110.844 1215.72 108.38 1205.87 108.38H1138.93L1147.33 98.3896V241.846H1128.54V91.996H1206.47C1216.59 91.996 1225.45 93.8608 1233.04 97.5904C1240.63 101.187 1246.56 106.248 1250.82 112.775C1255.22 119.302 1257.42 126.894 1257.42 135.552C1257.42 144.077 1255.22 151.603 1250.82 158.13C1246.56 164.657 1240.63 169.785 1233.04 173.514C1225.45 177.111 1216.59 178.909 1206.47 178.909H1141.53V162.725ZM1174.7 171.716H1197.87L1260.41 241.846H1237.04L1174.7 171.716Z" fill="white"/>
<path d="M1337.66 244.443C1324.74 244.443 1313.28 241.979 1303.29 237.051C1293.44 231.989 1285.65 225.063 1279.92 216.272C1274.32 207.347 1271.53 197.091 1271.53 185.502C1271.53 173.781 1274.19 163.524 1279.52 154.733C1284.85 145.942 1292.24 139.082 1301.7 134.154C1311.15 129.225 1322.01 126.761 1334.26 126.761C1346.38 126.761 1356.97 129.425 1366.03 134.753C1375.09 140.081 1382.08 147.607 1387.01 157.331C1392.07 166.921 1394.6 178.11 1394.6 190.897H1285.51V176.312H1386.81L1376.02 182.905C1375.62 174.513 1373.62 167.254 1370.03 161.127C1366.43 155 1361.57 150.271 1355.44 146.941C1349.31 143.611 1342.19 141.946 1334.06 141.946C1325.27 141.946 1317.61 143.744 1311.09 147.341C1304.56 150.804 1299.43 155.732 1295.7 162.126C1292.11 168.519 1290.31 176.045 1290.31 184.703C1290.31 193.761 1292.37 201.62 1296.5 208.28C1300.63 214.94 1306.42 220.068 1313.88 223.664C1321.34 227.261 1330.13 229.059 1340.26 229.059C1349.45 229.059 1358.44 227.527 1367.23 224.463C1376.15 221.4 1384.15 217.204 1391.21 211.876V226.262C1384.28 231.856 1376.02 236.318 1366.43 239.648C1356.84 242.845 1347.25 244.443 1337.66 244.443Z" fill="white"/>
<path d="M1524.33 241.846L1520.33 199.289L1525.33 185.502L1520.33 171.916L1524.33 129.359H1543.11L1537.92 185.502L1543.11 241.846H1524.33ZM1531.52 185.502C1528.59 197.224 1524.06 207.547 1517.94 216.471C1511.94 225.263 1504.62 232.122 1495.96 237.051C1487.43 241.979 1477.98 244.443 1467.59 244.443C1456.53 244.443 1446.74 241.979 1438.22 237.051C1429.69 231.989 1422.97 225.063 1418.04 216.272C1413.24 207.347 1410.84 197.091 1410.84 185.502C1410.84 173.781 1413.24 163.524 1418.04 154.733C1422.97 145.942 1429.69 139.082 1438.22 134.154C1446.74 129.225 1456.53 126.761 1467.59 126.761C1477.98 126.761 1487.43 129.225 1495.96 134.154C1504.62 139.082 1512.01 145.942 1518.14 154.733C1524.26 163.524 1528.73 173.781 1531.52 185.502ZM1429.63 185.502C1429.63 194.027 1431.36 201.553 1434.82 208.08C1438.42 214.607 1443.28 219.735 1449.41 223.464C1455.67 227.061 1462.73 228.859 1470.58 228.859C1478.58 228.859 1485.9 227.061 1492.56 223.464C1499.36 219.735 1505.35 214.607 1510.54 208.08C1515.87 201.553 1520.2 194.027 1523.53 185.502C1520.2 176.978 1515.87 169.452 1510.54 162.925C1505.35 156.398 1499.36 151.337 1492.56 147.74C1485.9 144.011 1478.58 142.146 1470.58 142.146C1462.73 142.146 1455.67 144.011 1449.41 147.74C1443.28 151.337 1438.42 156.398 1434.82 162.925C1431.36 169.452 1429.63 176.978 1429.63 185.502Z" fill="white"/>
<path d="M1570.6 88H1588.99V241.846H1570.6V88Z" fill="white"/>
<path d="M1792.7 158.929V174.913H1690.6V158.929H1792.7ZM1702.39 166.921L1691 237.251L1681.01 225.462H1798.09V241.846H1671.82L1684.21 166.921L1671.82 91.996H1797.09V108.38H1681.01L1691 96.5914L1702.39 166.921Z" fill="white"/>
<path d="M1932.19 208.879C1932.19 216.072 1929.99 222.332 1925.6 227.66C1921.34 232.988 1915.01 237.117 1906.62 240.048C1898.36 242.978 1888.3 244.443 1876.45 244.443C1864.33 244.443 1853.6 242.778 1844.28 239.448C1835.09 235.985 1827.9 231.19 1822.7 225.063C1817.51 218.936 1814.71 211.809 1814.31 203.684H1833.09C1833.89 208.879 1836.22 213.474 1840.08 217.47C1843.95 221.333 1849.01 224.33 1855.27 226.461C1861.53 228.593 1868.66 229.658 1876.65 229.658C1888.24 229.658 1897.29 227.927 1903.82 224.463C1910.48 220.867 1913.81 216.005 1913.81 209.878C1913.81 205.083 1911.68 201.553 1907.42 199.289C1903.15 196.891 1895.23 195.093 1883.64 193.894L1861.86 191.696C1851.07 190.631 1842.41 188.699 1835.89 185.902C1829.49 182.972 1824.9 179.375 1822.1 175.113C1819.3 170.717 1817.91 165.855 1817.91 160.527C1817.91 153.201 1820.1 147.074 1824.5 142.146C1829.03 137.084 1835.29 133.288 1843.28 130.757C1851.27 128.093 1860.53 126.761 1871.05 126.761C1882.24 126.761 1892.16 128.36 1900.82 131.556C1909.61 134.753 1916.61 139.215 1921.8 144.943C1927 150.671 1929.86 157.264 1930.39 164.723H1911.81C1911.15 160.461 1909.15 156.598 1905.82 153.135C1902.49 149.538 1897.83 146.675 1891.83 144.543C1885.97 142.412 1878.71 141.347 1870.05 141.347C1859.4 141.347 1851.07 142.878 1845.08 145.942C1839.22 149.006 1836.29 153.468 1836.29 159.329C1836.29 163.591 1838.22 166.988 1842.08 169.518C1845.94 172.049 1852.8 173.847 1862.66 174.913L1887.44 177.51C1898.76 178.576 1907.68 180.441 1914.21 183.105C1920.74 185.769 1925.33 189.232 1928 193.494C1930.79 197.757 1932.19 202.885 1932.19 208.879Z" fill="white"/>
<path d="M1939.82 144.144V135.353L1964.6 130.757L1971.99 100.188H1982.98V129.359H2037.73V144.144H1982.98V201.287C1982.98 211.41 1985.18 218.536 1989.57 222.665C1994.1 226.661 2001.03 228.659 2010.35 228.659C2016.48 228.659 2021.81 227.927 2026.34 226.461C2031 224.996 2035.53 222.865 2039.92 220.068V236.252C2036.73 238.25 2032 240.114 2025.74 241.846C2019.61 243.578 2013.22 244.443 2006.56 244.443C1996.43 244.443 1988.24 242.712 1981.98 239.249C1975.85 235.652 1971.39 230.857 1968.6 224.863C1965.93 218.736 1964.6 211.809 1964.6 204.084V144.144H1939.82Z" fill="white"/>
<path d="M2162.75 241.846L2158.76 199.289L2163.75 185.502L2158.76 171.916L2162.75 129.359H2181.54L2176.34 185.502L2181.54 241.846H2162.75ZM2169.95 185.502C2167.02 197.224 2162.49 207.547 2156.36 216.471C2150.37 225.263 2143.04 232.122 2134.38 237.051C2125.86 241.979 2116.4 244.443 2106.01 244.443C2094.96 244.443 2085.17 241.979 2076.64 237.051C2068.12 231.989 2061.39 225.063 2056.46 216.272C2051.67 207.347 2049.27 197.091 2049.27 185.502C2049.27 173.781 2051.67 163.524 2056.46 154.733C2061.39 145.942 2068.12 139.082 2076.64 134.154C2085.17 129.225 2094.96 126.761 2106.01 126.761C2116.4 126.761 2125.86 129.225 2134.38 134.154C2143.04 139.082 2150.43 145.942 2156.56 154.733C2162.69 163.524 2167.15 173.781 2169.95 185.502ZM2068.05 185.502C2068.05 194.027 2069.78 201.553 2073.24 208.08C2076.84 214.607 2081.7 219.735 2087.83 223.464C2094.09 227.061 2101.15 228.859 2109.01 228.859C2117 228.859 2124.33 227.061 2130.99 223.464C2137.78 219.735 2143.77 214.607 2148.97 208.08C2154.3 201.553 2158.62 194.027 2161.96 185.502C2158.62 176.978 2154.3 169.452 2148.97 162.925C2143.77 156.398 2137.78 151.337 2130.99 147.74C2124.33 144.011 2117 142.146 2109.01 142.146C2101.15 142.146 2094.09 144.011 2087.83 147.74C2081.7 151.337 2076.84 156.398 2073.24 162.925C2069.78 169.452 2068.05 176.978 2068.05 185.502Z" fill="white"/>
<path d="M2194.84 144.144V135.353L2219.62 130.757L2227.01 100.188H2238V129.359H2292.74V144.144H2238V201.287C2238 211.41 2240.2 218.536 2244.59 222.665C2249.12 226.661 2256.05 228.659 2265.37 228.659C2271.5 228.659 2276.83 227.927 2281.36 226.461C2286.02 224.996 2290.55 222.865 2294.94 220.068V236.252C2291.75 238.25 2287.02 240.114 2280.76 241.846C2274.63 243.578 2268.24 244.443 2261.58 244.443C2251.45 244.443 2243.26 242.712 2237 239.249C2230.87 235.652 2226.41 230.857 2223.61 224.863C2220.95 218.736 2219.62 211.809 2219.62 204.084V144.144H2194.84Z" fill="white"/>
<path d="M2370.03 244.443C2357.1 244.443 2345.65 241.979 2335.66 237.051C2325.8 231.989 2318.01 225.063 2312.28 216.272C2306.69 207.347 2303.89 197.091 2303.89 185.502C2303.89 173.781 2306.56 163.524 2311.88 154.733C2317.21 145.942 2324.6 139.082 2334.06 134.154C2343.52 129.225 2354.37 126.761 2366.63 126.761C2378.75 126.761 2389.34 129.425 2398.4 134.753C2407.45 140.081 2414.45 147.607 2419.38 157.331C2424.44 166.921 2426.97 178.11 2426.97 190.897H2317.88V176.312H2419.18L2408.39 182.905C2407.99 174.513 2405.99 167.254 2402.39 161.127C2398.8 155 2393.93 150.271 2387.81 146.941C2381.68 143.611 2374.55 141.946 2366.43 141.946C2357.64 141.946 2349.98 143.744 2343.45 147.341C2336.92 150.804 2331.8 155.732 2328.07 162.126C2324.47 168.519 2322.67 176.045 2322.67 184.703C2322.67 193.761 2324.74 201.62 2328.87 208.28C2333 214.94 2338.79 220.068 2346.25 223.664C2353.71 227.261 2362.5 229.059 2372.62 229.059C2381.81 229.059 2390.8 227.527 2399.6 224.463C2408.52 221.4 2416.51 217.204 2423.57 211.876V226.262C2416.65 231.856 2408.39 236.318 2398.8 239.648C2389.21 242.845 2379.62 244.443 2370.03 244.443Z" fill="white"/>
</svg>
